<?xml version="1.0" standalone="no"?>
<!DOCTYPE svg PUBLIC "-//W3C//DTD SVG 20010904//EN"
 "http://www.w3.org/TR/2001/REC-SVG-20010904/DTD/svg10.dtd">
<svg version="1.0" xmlns="http://www.w3.org/2000/svg"
 width="4159.000000pt" height="2936.000000pt" viewBox="0 0 4159.000000 2936.000000"
 preserveAspectRatio="xMidYMid meet">

<g transform="translate(0.000000,2936.000000) scale(0.100000,-0.100000)"
fill="#000000" stroke="none">
<path d="M9330 25946 c0 -1 196 -574 435 -1272 239 -698 435 -1270 435 -1271
0 -2 -797 -3 -1771 -3 -1413 0 -1770 -3 -1766 -12 2 -7 115 -335 250 -728 135
-393 351 -1021 479 -1395 129 -374 931 -2713 1784 -5197 984 -2871 1552 -4511
1556 -4500 4 9 237 1493 518 3297 281 1804 623 3993 760 4865 137 872 275
1753 306 1958 l58 372 7994 0 c7608 0 7993 1 7988 18 -3 9 -106 310 -229 667
l-224 650 -4800 3 -4800 2 -408 1193 c-224 655 -421 1229 -437 1275 l-30 82
-4049 0 c-2227 0 -4049 -2 -4049 -4z"/>
<path d="M13375 21098 c-5 -22 -642 -4095 -1430 -9133 -201 -1287 -368 -2350
-370 -2362 l-5 -23 159 0 160 0 74 60 c506 407 895 964 1195 1710 81 201 139
364 297 825 62 182 138 400 170 485 253 681 484 1065 795 1324 247 206 525
332 855 387 113 19 475 39 475 26 0 -3 -37 -27 -82 -52 -317 -182 -606 -453
-830 -778 -253 -370 -432 -768 -734 -1640 -213 -612 -312 -864 -450 -1141
-280 -563 -605 -925 -1036 -1151 l-103 -55 10063 0 c5534 0 10062 2 10062 4 0
3 -249 730 -554 1618 -463 1347 -2430 7081 -2500 7286 l-21 63 -78 -54 c-371
-259 -657 -605 -898 -1087 -126 -253 -219 -485 -468 -1173 -278 -765 -366
-987 -482 -1220 -157 -313 -314 -533 -530 -742 -368 -356 -829 -559 -1408
-619 -80 -9 -146 -14 -148 -12 -2 1 42 31 97 66 485 303 867 696 1163 1198
211 356 383 765 657 1562 252 734 383 1047 548 1313 223 361 527 626 881 768
136 54 343 106 484 120 61 6 117 13 123 14 7 2 -154 486 -405 1219 l-416 1216
-7652 0 -7653 0 -5 -22z m11155 -2725 c0 -5 -51 -36 -114 -70 -581 -320 -1093
-796 -1459 -1354 -444 -677 -767 -1609 -837 -2414 -13 -148 -23 -179 -62 -183
-17 -2 -114 36 -275 109 -136 61 -385 172 -553 245 -171 75 -313 143 -322 155
-10 12 -18 31 -18 42 0 29 109 393 175 586 349 1015 822 1738 1478 2260 460
366 964 570 1532 620 127 11 455 13 455 4z m761 -149 c117 -20 247 -61 381
-120 155 -69 381 -158 488 -192 188 -60 345 -65 608 -22 73 13 135 20 139 17
9 -10 -85 -136 -161 -216 -138 -144 -297 -242 -481 -297 -73 -21 -117 -27
-235 -31 -249 -9 -385 30 -735 211 -340 176 -489 223 -726 233 -203 8 -363
-21 -554 -102 l-80 -34 85 80 c216 206 482 370 711 440 165 50 383 63 560 33z
m-509 -790 c56 -19 180 -73 273 -118 153 -75 172 -87 192 -122 11 -22 165
-349 341 -729 357 -770 680 -1461 722 -1546 16 -30 36 -78 45 -106 24 -75 11
-108 -94 -240 -127 -157 -150 -170 -196 -109 -27 36 -49 81 -782 1666 -443
955 -613 1326 -613 1336 0 7 3 6 112 -32z m-806 -83 c41 -25 58 -59 454 -906
183 -390 499 -1065 702 -1500 203 -434 385 -815 404 -846 48 -80 47 -123 -6
-177 -41 -44 -79 -66 -199 -119 -102 -45 -118 -43 -136 17 -4 14 -133 291
-285 615 -448 954 -583 1246 -780 1690 -140 313 -192 420 -204 420 -12 0 -41
54 -105 200 -48 110 -111 250 -139 311 -29 61 -52 125 -52 142 0 39 33 65 149
117 136 61 152 64 197 36z m2417 -265 c29 -27 57 -79 88 -163 28 -73 164 -370
327 -713 126 -263 127 -266 126 -335 0 -58 -6 -82 -33 -140 -19 -38 -57 -128
-86 -200 -45 -111 -56 -130 -76 -133 -23 -2 -47 49 -382 805 -196 443 -354
810 -350 814 5 5 41 13 82 19 40 7 103 25 140 41 83 36 129 37 164 5z m-2533
-1924 c392 -838 711 -1525 709 -1526 -8 -8 -465 76 -484 88 -28 18 -1156 2427
-1162 2481 -4 34 8 67 87 235 50 107 98 210 106 229 9 21 18 31 23 25 5 -5
330 -694 721 -1532z m-6378 662 c550 -54 1224 -251 1988 -582 338 -146 617
-280 1500 -717 1105 -547 1380 -675 1875 -870 633 -250 1148 -385 1655 -435
170 -17 539 -14 705 5 458 53 887 208 1255 453 133 89 179 116 186 109 3 -2
-31 -58 -74 -123 -229 -344 -484 -618 -798 -854 -450 -340 -917 -529 -1499
-607 -186 -25 -701 -25 -905 0 -990 121 -1898 448 -3145 1135 -148 82 -381
210 -516 284 -789 436 -1288 662 -1939 879 -624 207 -1131 299 -1658 299 -664
0 -1209 -171 -1689 -530 -24 -17 -43 -29 -43 -25 0 13 158 231 260 359 132
164 350 389 500 515 674 566 1433 794 2342 705z m5192 -461 c27 -53 636 -1426
634 -1428 -2 -2 -111 35 -243 82 -149 52 -248 93 -261 106 -12 12 -85 157
-163 323 -101 216 -141 311 -141 337 0 30 109 551 125 595 8 21 34 13 49 -15z
m-6122 -992 c93 -12 156 -26 172 -37 15 -9 42 -48 61 -88 234 -489 1247 -2676
1247 -2690 -1 -10 -3 -20 -5 -22 -3 -4 -451 167 -495 188 -12 7 -31 26 -41 42
-11 17 -252 528 -536 1136 -284 608 -553 1180 -596 1272 -77 164 -92 211 -66
222 15 7 71 2 259 -23z m1248 -303 c188 -62 250 -87 268 -107 13 -14 194 -386
401 -826 208 -440 449 -948 535 -1130 87 -181 160 -346 163 -366 10 -67 -15
-89 -161 -139 -115 -40 -148 -45 -184 -26 -40 21 -57 51 -230 421 -82 176
-335 714 -562 1195 -359 762 -490 1044 -490 1057 0 7 26 -1 260 -79z m-2087
-39 c13 -17 133 -278 268 -580 222 -501 246 -549 265 -544 19 4 30 -15 104
-183 46 -103 159 -356 251 -563 93 -207 169 -385 169 -396 0 -35 -45 -64 -146
-94 -122 -36 -189 -41 -226 -16 -37 25 -76 103 -456 922 -181 391 -376 807
-432 925 -124 261 -122 255 -122 309 0 67 28 99 170 199 90 62 120 66 155 21z
m3477 -531 c182 -89 260 -132 272 -150 10 -15 45 -90 78 -169 74 -173 102
-228 150 -299 85 -125 116 -227 107 -350 -7 -95 -30 -167 -98 -313 -56 -121
-74 -138 -108 -109 -22 19 -701 1499 -701 1528 0 7 44 -13 300 -138z m1325
-576 c260 -120 550 -241 795 -329 153 -56 170 -66 170 -104 0 -73 -231 -449
-423 -689 -519 -651 -1260 -1096 -2069 -1244 -135 -25 -393 -56 -465 -56 -35
0 -32 3 72 61 239 132 406 259 611 463 201 202 352 397 507 657 192 323 378
724 518 1117 62 174 83 208 123 196 12 -4 84 -36 161 -72z m-3246 -1453 c170
-16 275 -47 540 -163 382 -167 482 -196 680 -196 129 0 206 12 322 49 49 16
89 26 89 22 0 -3 -32 -49 -71 -101 -208 -280 -481 -466 -800 -546 -82 -20
-138 -27 -264 -31 -250 -8 -338 10 -853 178 -134 44 -295 93 -358 109 -196 51
-467 90 -620 90 -63 0 -64 0 -53 22 6 12 55 65 108 118 245 245 627 415 1005
449 133 12 150 12 275 0z"/>
<path d="M31285 8966 c-269 -44 -529 -177 -715 -366 -399 -405 -492 -1018
-232 -1540 74 -148 137 -235 262 -361 166 -168 338 -274 541 -333 335 -97 747
-39 1070 150 118 69 281 232 333 333 32 61 36 75 25 86 -8 7 -108 67 -224 135
-115 68 -219 129 -231 137 -20 13 -23 10 -60 -53 -49 -84 -139 -169 -231 -217
-188 -98 -436 -102 -619 -9 -164 84 -295 253 -360 467 -26 83 -28 103 -28 260
1 144 4 182 22 250 60 219 181 375 362 469 99 51 149 61 300 61 151 0 237 -20
339 -77 76 -44 171 -136 211 -207 19 -33 38 -61 43 -61 11 0 451 309 455 320
6 16 -83 144 -148 214 -153 162 -348 271 -590 328 -111 25 -407 34 -525 14z"/>
<path d="M12416 8961 c-6 -9 -956 -2611 -956 -2617 0 -2 139 -4 309 -4 l309 0
56 163 c31 89 76 221 100 292 l43 130 409 3 410 2 101 -292 101 -293 312 -3
c294 -2 311 -1 305 15 -3 10 -218 601 -478 1313 l-473 1295 -271 3 c-152 1
-274 -2 -277 -7z m427 -1150 c81 -247 147 -452 147 -455 0 -3 -138 -6 -306 -6
-248 0 -305 2 -302 13 11 48 303 897 308 897 3 0 72 -202 153 -449z"/>
<path d="M14024 8956 c-3 -8 -4 -351 -1 -763 4 -808 6 -830 62 -1049 92 -354
316 -619 629 -744 150 -60 237 -74 471 -75 139 0 230 4 270 13 478 105 762
405 865 913 34 164 41 369 38 1059 l-3 655 -302 3 -302 2 -4 -767 c-3 -742 -4
-771 -25 -863 -55 -245 -197 -415 -387 -465 -76 -19 -214 -19 -290 0 -168 44
-297 180 -361 380 -50 156 -54 231 -54 1003 l0 712 -300 0 c-252 0 -302 -2
-306 -14z"/>
<path d="M16625 8957 c-3 -7 -4 -127 -3 -267 l3 -255 403 -3 402 -2 0 -1045 0
-1045 300 0 300 0 0 1045 0 1045 400 0 400 0 0 270 0 270 -1100 0 c-879 0
-1102 -3 -1105 -13z"/>
<path d="M19130 7655 l0 -1315 305 0 305 0 0 540 0 540 523 -2 522 -3 3 -537
2 -538 300 0 300 0 0 1315 0 1315 -300 0 -300 0 0 -510 0 -510 -525 0 -525 0
0 510 0 510 -305 0 -305 0 0 -1315z"/>
<path d="M21900 7655 l0 -1315 925 0 925 0 0 265 0 265 -620 0 -620 0 0 280 0
280 515 0 515 0 0 245 0 245 -515 0 -515 0 0 255 0 255 600 0 600 0 0 270 0
270 -905 0 -905 0 0 -1315z"/>
<path d="M24120 7655 l0 -1315 305 0 305 0 2 747 3 746 600 -746 600 -746 248
-1 247 0 -2 1313 -3 1312 -302 3 -303 2 -2 -770 -3 -769 -610 769 -610 769
-237 1 -238 0 0 -1315z"/>
<path d="M26725 8957 c-3 -7 -4 -127 -3 -267 l3 -255 403 -3 402 -2 0 -1045 0
-1045 300 0 300 0 0 1045 0 1045 400 0 400 0 0 270 0 270 -1100 0 c-879 0
-1102 -3 -1105 -13z"/>
<path d="M29230 7655 l0 -1315 305 0 305 0 0 1315 0 1315 -305 0 -305 0 0
-1315z"/>
<path d="M30230 5665 c-233 -46 -429 -208 -539 -447 -63 -135 -76 -200 -75
-378 0 -147 2 -160 32 -250 101 -301 338 -524 606 -571 93 -16 243 -6 326 21
87 29 186 88 259 155 32 30 61 55 65 55 3 0 6 -52 6 -115 l0 -115 65 0 65 0 0
405 0 405 -250 0 -250 0 0 -65 0 -65 185 0 185 0 0 -135 0 -136 -72 -72 c-153
-152 -331 -220 -515 -196 -86 11 -114 19 -189 57 -265 134 -413 464 -348 780
30 149 92 269 190 368 111 112 236 164 394 164 201 0 363 -82 465 -235 20 -30
38 -55 41 -55 13 0 114 75 114 85 0 22 -77 129 -126 177 -67 63 -133 103 -223
132 -140 46 -281 57 -411 31z"/>
<path d="M26870 4845 l0 -825 80 0 80 0 0 304 0 305 323 3 323 3 75 37 c195
96 313 324 281 542 -24 165 -132 325 -269 399 -94 50 -154 57 -540 57 l-353 0
0 -825z m824 635 c114 -68 179 -191 178 -335 -1 -176 -94 -318 -235 -360 -40
-12 -111 -15 -329 -15 l-278 0 0 376 0 375 303 -3 303 -3 58 -35z"/>
<path d="M28717 5662 c-4 -6 -656 -1559 -684 -1630 -4 -10 14 -12 83 -10 l88
3 102 248 c56 137 106 253 111 258 5 5 155 8 373 7 l363 -3 106 -257 106 -258
87 0 87 0 -35 83 c-19 45 -173 415 -342 822 l-307 740 -67 3 c-36 2 -69 -1
-71 -6z m233 -592 c88 -216 160 -397 160 -401 0 -5 -148 -9 -330 -9 -181 0
-330 2 -330 4 0 3 207 507 300 729 18 43 34 76 36 74 2 -2 76 -181 164 -397z"/>
<path d="M31390 4845 l0 -825 550 0 550 0 0 70 0 70 -470 0 -470 0 0 315 0
315 400 0 400 0 0 70 0 70 -400 0 -400 0 0 295 0 295 460 0 460 0 0 75 0 75
-540 0 -540 0 0 -825z"/>
</g>
</svg>
