<?xml version="1.0" standalone="no"?>
<!DOCTYPE svg PUBLIC "-//W3C//DTD SVG 20010904//EN"
 "http://www.w3.org/TR/2001/REC-SVG-20010904/DTD/svg10.dtd">
<svg version="1.0" xmlns="http://www.w3.org/2000/svg"
 width="1024.000000pt" height="1024.000000pt" viewBox="0 0 1024.000000 1024.000000"
 preserveAspectRatio="xMidYMid meet">

<g transform="translate(0.000000,1024.000000) scale(0.100000,-0.100000)"
fill="#000000" stroke="none">
<path d="M2305 9009 c-538 -35 -1035 -487 -1126 -1024 -21 -120 -14 -5597 7
-5730 25 -165 85 -313 189 -470 176 -265 453 -454 770 -527 l100 -23 2820 -3
c3095 -3 2934 -6 3145 55 237 68 490 253 627 458 118 176 178 327 213 530 20
115 20 162 20 2838 0 1914 -3 2749 -11 2812 -34 281 -144 508 -347 717 -141
145 -284 236 -486 307 -194 68 24 64 -3046 65 -1526 1 -2820 -2 -2875 -5z
m5414 -1374 c65 -33 218 -182 246 -240 31 -61 28 -194 -4 -260 -20 -40 -315
-340 -1450 -1478 -1176 -1177 -1435 -1432 -1479 -1454 -104 -51 -252 -39 -346
27 -23 16 -530 518 -1128 1117 -1190 1191 -1129 1124 -1130 1247 0 97 25 143
149 268 132 132 188 162 292 156 42 -2 83 -12 114 -27 38 -18 252 -228 970
-947 506 -508 925 -924 931 -924 6 0 571 560 1256 1244 1232 1231 1271 1268
1360 1297 51 17 162 4 219 -26z m-3426 -3388 c63 -38 272 -255 296 -308 26
-57 26 -131 1 -188 -15 -33 -143 -168 -488 -515 -257 -259 -479 -481 -494
-493 -59 -52 -156 -66 -244 -36 -39 13 -73 40 -165 130 -132 129 -168 185
-176 273 -11 114 -6 120 477 604 463 464 525 522 592 549 59 24 144 17 201
-16z m1494 8 c77 -39 994 -964 1029 -1038 55 -119 25 -206 -126 -361 -125
-129 -179 -161 -270 -161 -123 1 -100 -18 -633 514 -528 527 -537 537 -537
638 0 85 27 126 173 270 100 99 143 134 177 146 68 24 128 21 187 -8z"/>
</g>
</svg>
