<?xml version="1.0" standalone="no"?>
<!DOCTYPE svg PUBLIC "-//W3C//DTD SVG 20010904//EN"
 "http://www.w3.org/TR/2001/REC-SVG-20010904/DTD/svg10.dtd">
<svg version="1.0" xmlns="http://www.w3.org/2000/svg"
 width="500.000000pt" height="500.000000pt" viewBox="0 0 500.000000 500.000000"
 preserveAspectRatio="xMidYMid meet">

<g transform="translate(0.000000,500.000000) scale(0.100000,-0.100000)"
fill="#000000" stroke="none">
<path d="M1044 4386 c-194 -47 -360 -193 -438 -384 l-31 -77 0 -1410 c0 -1535
-3 -1448 57 -1569 63 -128 155 -219 283 -282 136 -67 79 -65 1620 -62 1290 3
1394 4 1448 21 181 54 298 154 381 322 64 132 61 48 61 1555 0 1520 4 1419
-67 1569 -73 154 -235 279 -409 317 -90 19 -2826 19 -2905 0z m2743 -664 c11
-6 41 -35 67 -63 43 -48 46 -55 46 -106 0 -40 -6 -64 -21 -86 -32 -47 -1379
-1396 -1411 -1413 -35 -18 -131 -18 -166 0 -43 23 -1093 1080 -1109 1116 -16
39 -17 74 -2 103 16 32 109 126 141 143 35 18 92 18 126 0 15 -8 229 -217 477
-465 l450 -451 615 614 c393 392 624 617 640 620 52 11 66 12 95 6 17 -4 40
-12 52 -18z m-1630 -1703 c91 -89 103 -110 91 -162 -8 -37 -38 -71 -256 -290
-258 -258 -273 -269 -338 -253 -31 8 -149 118 -170 158 -20 38 -17 77 6 116
25 40 442 457 485 484 22 14 42 18 74 15 37 -4 52 -14 108 -68z m796 -55 c67
-66 180 -178 251 -251 118 -121 129 -134 133 -175 7 -58 -9 -88 -85 -160 -65
-62 -93 -74 -150 -63 -31 6 -72 42 -275 243 -131 131 -245 249 -253 264 -8 15
-14 43 -14 63 0 31 9 46 63 102 84 89 111 105 165 100 40 -4 54 -15 165 -123z"/>
</g>
</svg>
